<svg xmlns="http://www.w3.org/2000/svg" viewBox="0 0 767.77 420.93"><path d="M455.53 5c-54.49.37-108.24 25.142-126.91 70.094-91.25-121.18-291.95-7.455-233.71 113.82-138.11-25.64-106.39 197.57 22.47 175.81 55.32 57.59 140.17 67.01 232 26.28h.06c111.01 40.42 207.56 10.29 251.09-20.56 261.28 68.17 167.31-349.25-4.15-240.35-1.34-86.727-71.69-125.56-140.85-125.09z" fill="#f2f2f2"/><path d="M328.62 75.09c44.244-106.55 285.63-99.7 266.72 76.688m1.038-21.692c171.46-108.91 265.44 308.51 4.154 240.33m16.534-14.423c-31.756 36.108-153.17 87.922-292.21 24.984m24.506 10.003c-91.82 40.73-176.65 31.33-231.98-26.26m23.893-6.545c-148.4 55.62-192.67-196.43-46.38-169.27m12.562 20.78c-99.64-135.93 151.77-278.65 236.96-108.95" stroke-linejoin="round" stroke="#515151" stroke-linecap="round" stroke-width="10" fill="none"/></svg>